<svg width="60" height="60" viewBox="0 0 60 60" fill="none" xmlns="http://www.w3.org/2000/svg">
<path d="M0 22.4C0 14.5593 0 10.6389 1.52591 7.64413C2.86814 5.00986 5.00986 2.86814 7.64413 1.52591C10.6389 0 14.5593 0 22.4 0H37.6C45.4407 0 49.3611 0 52.3559 1.52591C54.9901 2.86814 57.1319 5.00986 58.4741 7.64413C60 10.6389 60 14.5593 60 22.4V37.6C60 45.4407 60 49.3611 58.4741 52.3559C57.1319 54.9901 54.9901 57.1319 52.3559 58.4741C49.3611 60 45.4407 60 37.6 60H22.4C14.5593 60 10.6389 60 7.64413 58.4741C5.00986 57.1319 2.86814 54.9901 1.52591 52.3559C0 49.3611 0 45.4407 0 37.6V22.4Z" fill="black"/>
<path d="M13.278 24.9676C15.4759 24.9676 17.1753 23.2723 17.1753 20.7636V11H19.5542V26.8208H17.198V25.3516C16.133 26.459 14.6604 27.0918 13.0059 27.0918C9.60672 27.0918 7.00073 24.6284 7.00073 20.9008V11.0026H9.37962V20.7636C9.37962 23.3175 11.0564 24.9676 13.2773 24.9676" fill="white"/>
<path d="M21.3216 11.0002H23.6101V16.7634C24.1439 16.2182 24.7819 15.7852 25.4863 15.4901C26.1908 15.195 26.9474 15.0439 27.7115 15.0455C31.1107 15.0455 33.7843 17.7351 33.7843 21.0801C33.7843 24.4025 31.1107 27.0917 27.7115 27.0917C26.9438 27.0937 26.1833 26.9429 25.4749 26.648C24.7664 26.353 24.1241 25.9199 23.5856 25.3741V26.8199H21.3182L21.3216 11.0002ZM27.5531 25.0805C29.7287 25.0805 31.5188 23.2948 31.5188 21.0801C31.5188 18.8424 29.7287 17.0797 27.5531 17.0797C25.3549 17.0797 23.5648 18.8424 23.5648 21.0801C23.5648 23.2948 25.3322 25.0805 27.5531 25.0805Z" fill="white"/>
<path d="M40.629 15.0685C43.9598 15.0685 46.4074 17.6224 46.4074 21.0578V21.8037H37.0045C37.322 23.6796 38.8853 25.0809 40.8331 25.0809C42.1712 25.0809 43.3034 24.5381 44.1642 23.3856L45.8187 24.606C44.6627 26.143 42.9406 27.0694 40.8331 27.0694C37.3662 27.0694 34.6922 24.4929 34.6922 21.0578C34.6922 17.8033 37.2528 15.0685 40.6294 15.0685H40.629ZM37.0488 19.9957H44.0962C43.7111 18.2326 42.2834 17.0574 40.584 17.0574C38.8846 17.0574 37.4569 18.2326 37.0488 19.9957Z" fill="white"/>
<path d="M52.5472 17.3288C51.0515 17.3288 49.9639 18.4814 49.9639 20.2667V26.8211H47.6749V15.2947H49.9423V16.7197C50.5088 15.7929 51.438 15.2053 52.707 15.2053H53.4998V17.3299L52.5472 17.3288Z" fill="white"/>
<path d="M18.733 32.6701L24.5255 40.604L18.733 48.5378H16.3653L21.439 41.6195H7V39.5884H21.439L16.3653 32.6701H18.733Z" fill="white"/>
</svg>
