<svg width="60" height="60" viewBox="0 0 60 60" fill="none" xmlns="http://www.w3.org/2000/svg">
<path d="M0 22.4C0 14.5593 0 10.6389 1.52591 7.64413C2.86814 5.00986 5.00986 2.86814 7.64413 1.52591C10.6389 0 14.5593 0 22.4 0H37.6C45.4407 0 49.3611 0 52.3559 1.52591C54.9901 2.86814 57.1319 5.00986 58.4741 7.64413C60 10.6389 60 14.5593 60 22.4V37.6C60 45.4407 60 49.3611 58.4741 52.3559C57.1319 54.9901 54.9901 57.1319 52.3559 58.4741C49.3611 60 45.4407 60 37.6 60H22.4C14.5593 60 10.6389 60 7.64413 58.4741C5.00986 57.1319 2.86814 54.9901 1.52591 52.3559C0 49.3611 0 45.4407 0 37.6V22.4Z" fill="black"/>
<path d="M13.1312 35.8649C15.3079 35.8649 16.9911 34.1859 16.9911 31.7013V22.0312H19.3471V37.7004H17.0135V36.2453C15.9588 37.342 14.5003 37.9688 12.8617 37.9688C9.49507 37.9688 6.91406 35.5289 6.91406 31.8371V22.0338H9.27014V31.7013C9.27014 34.2307 10.9308 35.8649 13.1304 35.8649" fill="white"/>
<path d="M21.0982 22.0316H23.3648V27.7396C23.8935 27.1995 24.5253 26.7707 25.223 26.4784C25.9207 26.1862 26.6701 26.0365 27.4269 26.0381C30.7935 26.0381 33.4415 28.7019 33.4415 32.0148C33.4415 35.3053 30.7935 37.9687 27.4269 37.9687C26.6665 37.9708 25.9134 37.8214 25.2117 37.5293C24.51 37.2372 23.8738 36.8083 23.3405 36.2677V37.6996H21.0949L21.0982 22.0316ZM27.27 35.9769C29.4247 35.9769 31.1977 34.2083 31.1977 32.0148C31.1977 29.7986 29.4247 28.0527 27.27 28.0527C25.0929 28.0527 23.3199 29.7986 23.3199 32.0148C23.3199 34.2083 25.0704 35.9769 27.27 35.9769Z" fill="white"/>
<path d="M40.2202 26.0608C43.5191 26.0608 45.9432 28.5902 45.9432 31.9927V32.7314H36.6305C36.9449 34.5893 38.4933 35.9772 40.4223 35.9772C41.7476 35.9772 42.8689 35.4396 43.7215 34.2981L45.3601 35.5068C44.2152 37.0291 42.5096 37.9466 40.4223 37.9466C36.9887 37.9466 34.3403 35.3949 34.3403 31.9927C34.3403 28.7694 36.8764 26.0608 40.2206 26.0608H40.2202ZM36.6743 30.9408H43.6542C43.2728 29.1945 41.8588 28.0306 40.1757 28.0306C38.4925 28.0306 37.0785 29.1945 36.6743 30.9408Z" fill="white"/>
<path d="M52.025 28.2993C50.5436 28.2993 49.4664 29.4408 49.4664 31.2091V37.7005H47.1995V26.2847H49.4451V27.6961C50.0061 26.7782 50.9265 26.1962 52.1833 26.1962H52.9685V28.3004L52.025 28.2993Z" fill="white"/>
</svg>
